<svg width="317" height="62" viewBox="0 0 317 62" fill="none" xmlns="http://www.w3.org/2000/svg">
<g filter="url(#filter0_d_99_2)">
<path d="M10.2031 23.6193V17.9091H34.7912V23.6193H25.9702V47H19.0384V23.6193H10.2031ZM38.2251 47V17.9091H50.2422C52.4202 17.9091 54.3 18.3021 55.8814 19.0881C57.4723 19.8646 58.6986 20.982 59.5604 22.4403C60.4221 23.8892 60.853 25.608 60.853 27.5966C60.853 29.6136 60.4126 31.3277 59.532 32.7386C58.6513 34.1402 57.4013 35.2102 55.782 35.9489C54.1626 36.678 52.245 37.0426 50.0291 37.0426H42.4297V31.5028H48.7223C49.7829 31.5028 50.6683 31.3655 51.3786 31.0909C52.0982 30.8068 52.6428 30.3807 53.0121 29.8125C53.3814 29.2348 53.5661 28.4962 53.5661 27.5966C53.5661 26.697 53.3814 25.9536 53.0121 25.3665C52.6428 24.7699 52.0982 24.3248 51.3786 24.0312C50.6589 23.7282 49.7734 23.5767 48.7223 23.5767H45.2564V47H38.2251ZM54.603 33.7045L61.8473 47H54.1768L47.0746 33.7045H54.603ZM82.3089 17.9091H89.326V36.6733C89.326 38.8419 88.8099 40.7311 87.7777 42.3409C86.7455 43.9413 85.3061 45.1818 83.4595 46.0625C81.6129 46.9337 79.468 47.3693 77.0249 47.3693C74.5533 47.3693 72.3942 46.9337 70.5476 46.0625C68.701 45.1818 67.2663 43.9413 66.2436 42.3409C65.2209 40.7311 64.7095 38.8419 64.7095 36.6733V17.9091H71.7408V36.0625C71.7408 37.0663 71.9586 37.9612 72.3942 38.7472C72.8393 39.5331 73.4595 40.1487 74.255 40.5938C75.0504 41.0388 75.9737 41.2614 77.0249 41.2614C78.076 41.2614 78.9946 41.0388 79.7805 40.5938C80.576 40.1487 81.1963 39.5331 81.6413 38.7472C82.0864 37.9612 82.3089 37.0663 82.3089 36.0625V17.9091ZM109.457 26.6307C109.363 25.589 108.941 24.7794 108.193 24.2017C107.455 23.6146 106.399 23.321 105.026 23.321C104.116 23.321 103.359 23.4394 102.753 23.6761C102.147 23.9129 101.692 24.2396 101.389 24.6562C101.086 25.0634 100.93 25.5322 100.92 26.0625C100.902 26.4981 100.987 26.8816 101.176 27.2131C101.375 27.5445 101.659 27.8381 102.028 28.0938C102.407 28.34 102.862 28.5578 103.392 28.7472C103.922 28.9366 104.519 29.1023 105.182 29.2443L107.682 29.8125C109.121 30.125 110.39 30.5417 111.489 31.0625C112.597 31.5833 113.525 32.2036 114.273 32.9233C115.03 33.643 115.603 34.4716 115.991 35.4091C116.38 36.3466 116.579 37.3977 116.588 38.5625C116.579 40.3996 116.115 41.9763 115.196 43.2926C114.277 44.6089 112.956 45.6174 111.233 46.3182C109.519 47.0189 107.45 47.3693 105.026 47.3693C102.592 47.3693 100.471 47.0047 98.6619 46.2756C96.8532 45.5464 95.447 44.4384 94.4432 42.9517C93.4394 41.465 92.9233 39.5852 92.8949 37.3125H99.6278C99.6847 38.25 99.9356 39.0312 100.381 39.6562C100.826 40.2812 101.437 40.7547 102.213 41.0767C102.999 41.3987 103.908 41.5597 104.94 41.5597C105.887 41.5597 106.692 41.4318 107.355 41.1761C108.027 40.9205 108.544 40.5653 108.903 40.1108C109.263 39.6562 109.448 39.1354 109.457 38.5483C109.448 37.9991 109.277 37.5303 108.946 37.142C108.615 36.7443 108.103 36.4034 107.412 36.1193C106.73 35.8258 105.859 35.5559 104.798 35.3097L101.759 34.5994C99.2396 34.0218 97.2557 33.089 95.8068 31.8011C94.358 30.5038 93.6383 28.7519 93.6477 26.5455C93.6383 24.7462 94.1212 23.1695 95.0966 21.8153C96.072 20.4612 97.4214 19.4053 99.1449 18.6477C100.868 17.8902 102.833 17.5114 105.04 17.5114C107.294 17.5114 109.249 17.8949 110.906 18.6619C112.573 19.4195 113.866 20.4848 114.784 21.858C115.703 23.2311 116.171 24.822 116.19 26.6307H109.457ZM119.188 23.6193V17.9091H143.776V23.6193H134.955V47H128.023V23.6193H119.188ZM174.096 47H166.539L176.354 17.9091H185.715L195.531 47H187.974L181.141 25.2386H180.914L174.096 47ZM173.087 35.5511H188.883V40.892H173.087V35.5511ZM201.362 17.9091L207.867 39.2159H208.109L214.614 17.9091H222.484L212.668 47H203.308L193.492 17.9091H201.362ZM224.664 23.6193V17.9091H249.252V23.6193H240.431V47H233.499V23.6193H224.664ZM280.143 32.4545C280.143 35.6553 279.528 38.3684 278.297 40.5938C277.066 42.8191 275.399 44.5095 273.297 45.6648C271.204 46.8201 268.856 47.3977 266.251 47.3977C263.638 47.3977 261.285 46.8153 259.192 45.6506C257.099 44.4858 255.437 42.7955 254.206 40.5795C252.984 38.3542 252.374 35.6458 252.374 32.4545C252.374 29.2538 252.984 26.5407 254.206 24.3153C255.437 22.09 257.099 20.3996 259.192 19.2443C261.285 18.089 263.638 17.5114 266.251 17.5114C268.856 17.5114 271.204 18.089 273.297 19.2443C275.399 20.3996 277.066 22.09 278.297 24.3153C279.528 26.5407 280.143 29.2538 280.143 32.4545ZM272.956 32.4545C272.956 30.5606 272.686 28.9602 272.146 27.6534C271.616 26.3466 270.849 25.357 269.845 24.6847C268.851 24.0123 267.653 23.6761 266.251 23.6761C264.859 23.6761 263.661 24.0123 262.658 24.6847C261.654 25.357 260.882 26.3466 260.342 27.6534C259.812 28.9602 259.547 30.5606 259.547 32.4545C259.547 34.3485 259.812 35.9489 260.342 37.2557C260.882 38.5625 261.654 39.5521 262.658 40.2244C263.661 40.8968 264.859 41.233 266.251 41.233C267.653 41.233 268.851 40.8968 269.845 40.2244C270.849 39.5521 271.616 38.5625 272.146 37.2557C272.686 35.9489 272.956 34.3485 272.956 32.4545Z" fill="black"/>
</g>
<g filter="url(#filter1_d_99_2)">
<path d="M282.703 8.64773V6.36364H292.538V8.64773H289.01V18H286.237V8.64773H282.703ZM293.912 6.36364H297.395L300.349 13.5682H300.486L303.44 6.36364H306.923V18H304.185V10.8523H304.088L301.293 17.9261H299.543L296.747 10.8125H296.651V18H293.912V6.36364Z" fill="black"/>
</g>
<defs>
<filter id="filter0_d_99_2" x="0.203125" y="11.5114" width="289.94" height="49.8864" filterUnits="userSpaceOnUse" color-interpolation-filters="sRGB">
<feFlood flood-opacity="0" result="BackgroundImageFix"/>
<feColorMatrix in="SourceAlpha" type="matrix" values="0 0 0 0 0 0 0 0 0 0 0 0 0 0 0 0 0 0 127 0" result="hardAlpha"/>
<feOffset dy="4"/>
<feGaussianBlur stdDeviation="5"/>
<feComposite in2="hardAlpha" operator="out"/>
<feColorMatrix type="matrix" values="0 0 0 0 0.673667 0 0 0 0 0 0 0 0 0 0.783333 0 0 0 0.54 0"/>
<feBlend mode="normal" in2="BackgroundImageFix" result="effect1_dropShadow_99_2"/>
<feBlend mode="normal" in="SourceGraphic" in2="effect1_dropShadow_99_2" result="shape"/>
</filter>
<filter id="filter1_d_99_2" x="272.703" y="0.363647" width="44.2202" height="31.6364" filterUnits="userSpaceOnUse" color-interpolation-filters="sRGB">
<feFlood flood-opacity="0" result="BackgroundImageFix"/>
<feColorMatrix in="SourceAlpha" type="matrix" values="0 0 0 0 0 0 0 0 0 0 0 0 0 0 0 0 0 0 127 0" result="hardAlpha"/>
<feOffset dy="4"/>
<feGaussianBlur stdDeviation="5"/>
<feComposite in2="hardAlpha" operator="out"/>
<feColorMatrix type="matrix" values="0 0 0 0 0.673667 0 0 0 0 0 0 0 0 0 0.783333 0 0 0 0.54 0"/>
<feBlend mode="normal" in2="BackgroundImageFix" result="effect1_dropShadow_99_2"/>
<feBlend mode="normal" in="SourceGraphic" in2="effect1_dropShadow_99_2" result="shape"/>
</filter>
</defs>
</svg>
